# xmcd
#
# Track frame offsets:
#	150
#	17076
#	31994
#	49574
#	65728
#	79509
#	93326
#	107809
#	120944
#	135350
#	154652
#	174850
#
# Disc length: 2525 seconds
#
# Revision: 0
# Processed by: cddbd v1.5.1PL0 Copyright (c) Steve Scherf et al.
# Submitted via: dBpowerAMP V4.0
#
DISCID=8509db0c
DTITLE=Wayne Toups - Back To The Bayou
DYEAR=2004
DGENRE=Country
TTITLE0=4 am Alone
TTITLE1=Come On In
TTITLE2=Every Man Needs A Woman
TTITLE3=I Saw Johnnie Dance
TTITLE4=Ma Belle
TTITLE5=Mine, Mine, Mine
TTITLE6=Oh What A Night
TTITLE7=Old Fashioned Two-Step
TTITLE8=Rockin' Saturday Night
TTITLE9=Take My Hand
TTITLE10=The Back Door
TTITLE11=Une Autre Biere
EXTD=
EXTT0=
EXTT1=
EXTT2=
EXTT3=
EXTT4=
EXTT5=
EXTT6=
EXTT7=
EXTT8=
EXTT9=
EXTT10=
EXTT11=
PLAYORDER=
